<?xml version="1.0" encoding="UTF-8"?>
<svg xmlns="http://www.w3.org/2000/svg" viewBox="0 0 845.71 845.71">
  <polygon
    points="394.67 28.19 422.86 28.19 451.05 28.19 479.24 28.19 507.43 28.19 507.43 0 479.24 0 451.05 0 422.86 0 394.67 0 366.48 0 338.29 0 338.29 28.19 366.48 28.19 394.67 28.19" />
  <polygon
    points="310.09 56.38 338.29 56.38 338.29 28.19 310.09 28.19 281.9 28.19 253.71 28.19 253.71 56.38 281.9 56.38 310.09 56.38" />
  <polygon
    points="535.62 56.38 563.81 56.38 592 56.38 592 28.19 563.81 28.19 535.62 28.19 507.43 28.19 507.43 56.38 535.62 56.38" />
  <polygon points="253.71 84.57 253.71 56.38 225.52 56.38 197.33 56.38 197.33 84.57 225.52 84.57 253.71 84.57" />
  <rect x="169.14" y="84.57" width="28.19" height="28.19" />
  <rect x="140.95" y="112.76" width="28.19" height="28.19" />
  <rect x="112.76" y="140.95" width="28.19" height="28.19" />
  <rect x="84.57" y="169.14" width="28.19" height="28.19" />
  <polygon points="84.57 225.52 84.57 197.33 56.38 197.33 56.38 225.52 56.38 253.71 84.57 253.71 84.57 225.52" />
  <polygon
    points="56.38 310.09 56.38 281.9 56.38 253.71 28.19 253.71 28.19 281.9 28.19 310.09 28.19 338.29 56.38 338.29 56.38 310.09" />
  <polygon
    points="817.52 338.29 817.52 310.09 817.52 281.9 817.52 253.71 789.33 253.71 789.33 225.52 789.33 197.33 761.14 197.33 761.14 169.14 732.95 169.14 732.95 140.95 704.76 140.95 704.76 112.76 676.57 112.76 676.57 84.57 648.38 84.57 648.38 56.38 620.19 56.38 592 56.38 592 84.57 620.19 84.57 620.19 112.76 648.38 112.76 648.38 140.95 648.38 169.14 676.57 169.14 676.57 197.33 676.57 225.52 676.57 253.71 676.57 281.9 676.57 310.09 676.57 338.29 648.38 338.29 648.38 366.48 676.57 366.48 676.57 394.67 704.76 394.67 704.76 422.86 732.95 422.86 732.95 394.67 732.95 366.48 761.14 366.48 761.14 394.67 761.14 422.86 761.14 451.05 761.14 479.24 761.14 507.43 732.95 507.43 732.95 479.24 704.76 479.24 704.76 451.05 676.57 451.05 676.57 479.24 676.57 507.43 648.38 507.43 648.38 479.24 648.38 451.05 648.38 422.86 620.19 422.86 620.19 394.67 592 394.67 592 422.86 592 451.05 592 479.24 563.81 479.24 535.62 479.24 507.43 479.24 507.43 507.43 535.62 507.43 563.81 507.43 563.81 535.62 535.62 535.62 535.62 563.81 507.43 563.81 507.43 592 479.24 592 479.24 620.19 451.05 620.19 422.86 620.19 422.86 648.38 394.67 648.38 366.48 648.38 338.29 648.38 338.29 676.57 310.09 676.57 281.9 676.57 253.71 676.57 225.52 676.57 197.33 676.57 169.14 676.57 169.14 648.38 140.95 648.38 112.76 648.38 112.76 620.19 84.57 620.19 84.57 592 56.38 592 56.38 620.19 56.38 648.38 84.57 648.38 84.57 676.57 112.76 676.57 112.76 704.76 140.95 704.76 140.95 732.95 169.14 732.95 169.14 761.14 197.33 761.14 197.33 789.33 225.52 789.33 253.71 789.33 253.71 817.52 281.9 817.52 310.09 817.52 338.29 817.52 338.29 845.71 366.48 845.71 394.67 845.71 422.86 845.71 451.05 845.71 479.24 845.71 507.43 845.71 507.43 817.52 535.62 817.52 563.81 817.52 592 817.52 592 789.33 620.19 789.33 648.38 789.33 648.38 761.14 676.57 761.14 676.57 732.95 704.76 732.95 704.76 704.76 732.95 704.76 732.95 676.57 761.14 676.57 761.14 648.38 789.33 648.38 789.33 620.19 789.33 592 817.52 592 817.52 563.81 817.52 535.62 817.52 507.43 845.71 507.43 845.71 479.24 845.71 451.05 845.71 422.86 845.71 394.67 845.71 366.48 845.71 338.29 817.52 338.29" />
  <polygon
    points="394.67 394.67 422.86 394.67 422.86 366.48 394.67 366.48 366.48 366.48 338.29 366.48 338.29 394.67 366.48 394.67 394.67 394.67" />
  <polygon
    points="563.81 366.48 535.62 366.48 507.43 366.48 507.43 394.67 535.62 394.67 563.81 394.67 592 394.67 592 366.48 563.81 366.48" />
  <rect x="140.95" y="422.86" width="28.19" height="28.19" />
  <rect x="197.33" y="422.86" width="28.19" height="28.19" />
  <polygon
    points="253.71 451.05 253.71 479.24 253.71 507.43 281.9 507.43 281.9 479.24 281.9 451.05 281.9 422.86 281.9 394.67 281.9 366.48 253.71 366.48 253.71 394.67 225.52 394.67 225.52 422.86 253.71 422.86 253.71 451.05" />
  <polygon
    points="422.86 451.05 422.86 479.24 451.05 479.24 451.05 451.05 451.05 422.86 451.05 394.67 422.86 394.67 422.86 422.86 422.86 451.05" />
  <polygon
    points="507.43 422.86 507.43 394.67 479.24 394.67 479.24 422.86 479.24 451.05 479.24 479.24 507.43 479.24 507.43 451.05 507.43 422.86" />
  <polygon
    points="28.19 451.05 28.19 422.86 28.19 394.67 28.19 366.48 28.19 338.29 0 338.29 0 366.48 0 394.67 0 422.86 0 451.05 0 479.24 0 507.43 28.19 507.43 28.19 479.24 28.19 451.05" />
  <polygon
    points="338.29 451.05 338.29 422.86 338.29 394.67 310.09 394.67 310.09 422.86 310.09 451.05 310.09 479.24 338.29 479.24 338.29 451.05" />
  <polygon
    points="112.76 479.24 112.76 451.05 112.76 422.86 140.95 422.86 140.95 394.67 112.76 394.67 112.76 366.48 84.57 366.48 84.57 394.67 84.57 422.86 84.57 451.05 84.57 479.24 84.57 507.43 112.76 507.43 112.76 479.24" />
  <polygon points="169.14 507.43 197.33 507.43 197.33 479.24 197.33 451.05 169.14 451.05 169.14 479.24 169.14 507.43" />
  <polygon
    points="366.48 479.24 338.29 479.24 338.29 507.43 366.48 507.43 394.67 507.43 422.86 507.43 422.86 479.24 394.67 479.24 366.48 479.24" />
  <polygon
    points="56.38 535.62 56.38 507.43 28.19 507.43 28.19 535.62 28.19 563.81 28.19 592 56.38 592 56.38 563.81 56.38 535.62" />
</svg>